<svg width="30" height="30" viewBox="0 0 30 30" fill="none" xmlns="http://www.w3.org/2000/svg">
<path d="M8.6679 21.4929C9.05842 21.8834 9.69159 21.8834 10.0821 21.4929L14.2929 17.2821C14.6834 16.8916 15.3166 16.8916 15.7071 17.2821L19.9179 21.4929C20.3084 21.8834 20.9416 21.8834 21.3321 21.4929L21.4929 21.3321C21.8834 20.9416 21.8834 20.3084 21.4929 19.9179L17.2821 15.7071C16.8916 15.3166 16.8916 14.6834 17.2821 14.2929L21.4929 10.0821C21.8834 9.69159 21.8834 9.05842 21.4929 8.6679L21.3321 8.50711C20.9416 8.11658 20.3084 8.11658 19.9179 8.50711L15.7071 12.7179C15.3166 13.1084 14.6834 13.1084 14.2929 12.7179L10.0821 8.50711C9.69159 8.11658 9.05842 8.11658 8.6679 8.50711L8.50711 8.6679C8.11658 9.05842 8.11658 9.69159 8.50711 10.0821L12.7179 14.2929C13.1084 14.6834 13.1084 15.3166 12.7179 15.7071L8.50711 19.9179C8.11658 20.3084 8.11658 20.9416 8.50711 21.3321L8.6679 21.4929ZM15 30C12.95 30 11.0125 29.6063 9.1875 28.8188C7.3625 28.0313 5.76875 26.9563 4.40625 25.5938C3.04375 24.2313 1.96875 22.6375 1.18125 20.8125C0.39375 18.9875 0 17.05 0 15C0 12.925 0.39375 10.975 1.18125 9.15C1.96875 7.325 3.04375 5.7375 4.40625 4.3875C5.76875 3.0375 7.3625 1.96875 9.1875 1.18125C11.0125 0.39375 12.95 0 15 0C17.075 0 19.025 0.39375 20.85 1.18125C22.675 1.96875 24.2625 3.0375 25.6125 4.3875C26.9625 5.7375 28.0313 7.325 28.8188 9.15C29.6063 10.975 30 12.925 30 15C30 17.05 29.6063 18.9875 28.8188 20.8125C28.0313 22.6375 26.9625 24.2313 25.6125 25.5938C24.2625 26.9563 22.675 28.0313 20.85 28.8188C19.025 29.6063 17.075 30 15 30ZM15 27.75C18.55 27.75 21.5625 26.5063 24.0375 24.0188C26.5125 21.5313 27.75 18.525 27.75 15C27.75 11.45 26.5125 8.4375 24.0375 5.9625C21.5625 3.4875 18.55 2.25 15 2.25C11.475 2.25 8.46875 3.4875 5.98125 5.9625C3.49375 8.4375 2.25 11.45 2.25 15C2.25 18.525 3.49375 21.5313 5.98125 24.0188C8.46875 26.5063 11.475 27.75 15 27.75Z" fill="#D6925C"/>
</svg>
