<svg width="70" height="70" viewBox="0 0 70 67" fill="none" xmlns="http://www.w3.org/2000/svg">
<ellipse cx="34.1808" cy="30.4934" rx="29.4563" ry="28.9795" fill="url(#paint0_linear_178_418)"/>
<path d="M69.7298 23.5732C68.4668 13.5549 63.3268 7.1745 58.8893 3.75324C56.112 1.61202 49.9367 1.06964 51.9169 3.96394C52.1974 4.37391 52.5958 4.72815 53.081 4.94426C61.2339 8.57544 64.6598 16.8255 65.8768 22.6731C66.3768 25.0756 68.6902 27.819 69.5956 25.538C69.8572 24.8789 69.8185 24.2768 69.7298 23.5732Z" fill="url(#paint1_linear_178_418)"/>
<path d="M0.838064 43.315C3.6781 53.005 9.76733 58.4868 14.6925 61.1589C17.7749 62.8312 23.9578 62.3847 21.5426 59.8421C21.2005 59.482 20.7508 59.1956 20.2374 59.0594C11.6108 56.7709 6.91663 49.1706 4.7852 43.591C3.90947 41.2985 1.18925 38.958 0.65811 41.3538C0.504626 42.0462 0.638613 42.6345 0.838064 43.315Z" fill="url(#paint2_linear_178_418)"/>
<path d="M62.9792 36.4292C62.7249 44.1006 57.5834 49.8003 54.5555 51.4223C54.0432 35.141 45.1376 29.623 43.0191 27.9426C40.9006 26.2623 36.7317 26.6758 33.9826 25.6969C31.2335 24.718 33.3335 23.4769 34.2921 23.4344C35.0589 23.4003 37.2842 23.9515 38.3096 23.701C37.1181 22.9835 35.0053 22.5414 33.5071 22.157C32.5345 21.9076 30.9795 21.0845 31.0737 20.0849C31.2316 18.4103 33.5555 19.2866 35.1622 19.7842L39.4894 21.1245C38.935 20.531 36.9128 19.3818 35.226 18.3768C33.9811 17.6351 31.6967 16.0004 32.7454 15.0004C33.9782 13.825 35.6793 15.1887 37.1444 16.0576C39.5189 17.4658 42.0401 19.0002 41.6348 18.3997C41.3682 18.0048 41.12 17.6579 40.8877 17.3517C38.8152 14.6193 36.0215 10.3393 39.0955 11.8598C42.4679 13.5278 44.3713 16.6345 44.9015 17.9794C44.156 13.8522 44.8575 12.2422 45.3015 11.9531C45.743 11.4337 46.7735 10.734 47.3631 12.0899C48.1002 13.7848 46.3508 16.1869 48.6906 20.0892C52.8017 26.9459 56.9853 26.7397 62.9792 36.4292Z" fill="url(#paint3_linear_178_418)"/>
<path d="M3.53669 28.5879C2.40957 23.2449 5.60806 17.802 8.54736 15.8199C16.6306 19.7658 22.6716 25.5954 25.318 29.389C26.3067 30.8063 27.3538 32.2821 28.9166 33.0196C32.6925 34.8017 35.9925 34.6354 36.9945 35.0156C37.1846 35.0877 37.2391 35.3 37.2057 35.5005C36.0026 38.5229 32.5077 37.0829 30.7233 36.9475C31.8439 37.6707 33.7308 38.7597 35.2546 39.6931C36.5225 40.4697 38.5781 42.0341 37.3647 42.8934C36.1673 43.7414 34.6804 42.6195 33.4497 41.8205C31.4282 40.5082 29.1289 39.0357 29.3473 39.2967C29.7128 39.7334 32.442 43.4092 33.6352 44.4668C34.8283 45.5243 34.8701 47.2499 33.9481 47.5263C33.0261 47.8027 31.7808 47.0588 30.926 46.2722C30.242 45.643 27.9382 42.2849 27.0099 40.8417L28.3869 46.0651C28.8463 47.9138 28.897 49.3844 27.7461 49.1932C26.5952 49.0019 26.3561 48.096 25.7697 46.8955L25.7407 46.8361C25.3621 46.0614 24.5287 44.356 24.1589 43.1624C23.9673 42.5442 23.4571 42.0873 23.4385 42.7342C23.4282 43.0933 23.474 43.5579 23.5446 44.0527C23.8365 46.098 24.1872 49.5389 22.2202 48.9072C21.1286 48.5567 19.705 40.6483 16.5697 35.1327C14.0615 30.7202 10.1764 28.5745 8.54736 28.0532C7.05529 27.3545 5.97246 27.2863 4.86653 27.6787C4.89203 27.8259 4.71777 28.4987 4.75522 30.0713C4.7665 30.545 3.6126 29.1196 3.53669 28.5879Z" fill="url(#paint4_linear_178_418)"/>
<defs>
<linearGradient id="paint0_linear_178_418" x1="10.1813" y1="14.2819" x2="56.5909" y2="50.0427" gradientUnits="userSpaceOnUse">
<stop stop-color="#157C20"/>
<stop offset="1" stop-color="#9BE987"/>
</linearGradient>
<linearGradient id="paint1_linear_178_418" x1="59.887" y1="0.535819" x2="61.6863" y2="27.4683" gradientUnits="userSpaceOnUse">
<stop stop-color="#FFF6EC"/>
<stop offset="1" stop-color="#FCC89D"/>
</linearGradient>
<linearGradient id="paint2_linear_178_418" x1="14.2191" y1="64.494" x2="8.15982" y2="38.1904" gradientUnits="userSpaceOnUse">
<stop stop-color="#FFF6EC"/>
<stop offset="1" stop-color="#FCC89D"/>
</linearGradient>
<linearGradient id="paint3_linear_178_418" x1="39.4099" y1="14.323" x2="56.5088" y2="49.4921" gradientUnits="userSpaceOnUse">
<stop stop-color="#FFF6EC"/>
<stop offset="1" stop-color="#FCC395"/>
</linearGradient>
<linearGradient id="paint4_linear_178_418" x1="4.11948" y1="22.7072" x2="26.7945" y2="38.6009" gradientUnits="userSpaceOnUse">
<stop stop-color="#FCC89D"/>
<stop offset="1" stop-color="#FEF6EC"/>
</linearGradient>
</defs>
</svg>
